<svg width="484" height="69" viewBox="0 0 484 69" fill="none" xmlns="http://www.w3.org/2000/svg">
<path fill="currentColor" d="M127.5 28.2825L128.206 28.5348V28.5348L127.5 28.2825ZM83 2.28258L82.8767 1.54278V1.54278L83 2.28258ZM64.5 49.7825L64.9912 49.2158V49.2158L64.5 49.7825ZM127.5 50.7826L127.988 51.352L127.5 50.7826ZM147 34.7825L146.551 34.1816L147 34.7825ZM188.5 14.2825L188.659 15.0154L188.5 14.2825ZM195 49.2825L195.37 49.9348V49.9348L195 49.2825ZM116 25.7826L116.728 25.9617V25.9617L116 25.7826ZM173 32.7825L173.651 32.4104L173 32.7825ZM188.5 59.7825L187.924 60.2627V60.2627L188.5 59.7825ZM217 66.2825L216.793 65.5617L217 66.2825ZM204 2.28258L204.292 2.97333L204 2.28258ZM210.5 44.7826L211.072 44.2971V44.2971L210.5 44.7826ZM239 64.2825L239.153 63.5484L239 64.2825ZM223 29.2825L222.263 29.4191L223 29.2825ZM243 48.2825L242.453 48.7952V48.7952L243 48.2825ZM346.5 29.2825L345.79 29.5235L346.5 29.2825ZM341.5 57.2825L340.892 56.8434L341.5 57.2825ZM484 32.8544L476.5 28.5243V37.1845L484 32.8544ZM0 32.8544C0 35.0635 1.79086 36.8544 4 36.8544C6.20914 36.8544 8 35.0635 8 32.8544C8 30.6452 6.20914 28.8544 4 28.8544C1.79086 28.8544 0 30.6452 0 32.8544ZM399.5 10.7825L399.173 11.4577L399.5 10.7825ZM272.5 9.78254L272.059 9.17598L272.5 9.78254ZM311 22.7825L311.264 22.0806L311 22.7825ZM274.5 60.2825L273.816 60.5903L274.5 60.2825ZM325 13.7825L324.423 13.303L325 13.7825ZM430.5 17.7825L430.044 18.3777L430.5 17.7825ZM356.5 29.2825L357.229 29.4581L356.5 29.2825ZM313 44.7825L312.837 44.0504L313 44.7825ZM410.5 52.2825L410.533 51.5333L410.5 52.2825ZM127.5 28.2825L128.206 28.5348C129.964 23.6112 129.58 19.1391 127.566 15.2924C125.564 11.4677 121.987 8.32642 117.468 5.95518C108.436 1.21623 95.4469 -0.552229 82.8767 1.54278L83 2.28258L83.1233 3.02237C95.4357 0.970324 108.081 2.72439 116.771 7.28346C121.112 9.56122 124.418 12.5129 126.237 15.9881C128.045 19.4414 128.42 23.4764 126.794 28.0303L127.5 28.2825ZM83 2.28258L82.8767 1.54278C70.5681 3.5942 61.996 12.4398 58.4191 22.4041C54.8492 32.3488 56.2056 43.5866 64.0088 50.3493L64.5 49.7825L64.9912 49.2158C57.7944 42.9785 56.4008 32.4662 59.8309 22.9109C63.254 13.3753 71.4319 4.97091 83.1233 3.02237L83 2.28258ZM64.5 49.7825L64.0088 50.3493C72.8725 58.0311 86.2991 60.4743 98.6922 59.9402C104.905 59.6724 110.899 58.6554 115.994 57.1486C121.073 55.6464 125.32 53.6391 127.988 51.352L127.5 50.7826L127.012 50.2131C124.573 52.3038 120.555 54.2354 115.568 55.7102C110.597 57.1805 104.725 58.1788 98.6276 58.4416C86.4012 58.9685 73.4352 56.5339 64.9912 49.2158L64.5 49.7825ZM127.5 50.7826L127.988 51.352C134.995 45.3459 139.58 41.2583 147.449 35.3835L147 34.7825L146.551 34.1816C138.633 40.0934 134.005 44.2193 127.012 50.2131L127.5 50.7826ZM147 34.7825L147.449 35.3835C158.617 27.0452 171.153 18.8212 188.659 15.0154L188.5 14.2825L188.341 13.5497C170.52 17.4238 157.777 25.8004 146.551 34.1816L147 34.7825ZM188.5 14.2825L188.659 15.0154C194.38 13.7718 199.714 13.2425 204.035 14.1788C208.301 15.1031 211.574 17.4493 213.298 22.0459L214 21.7825L214.702 21.5192C212.777 16.3845 209.05 13.7307 204.353 12.7128C199.711 11.707 194.12 12.2932 188.341 13.5497L188.5 14.2825ZM214 21.7825L213.298 22.0459C215.425 27.7196 213.765 32.636 210.051 37.0307C206.308 41.4584 200.534 45.2795 194.63 48.6303L195 49.2825L195.37 49.9348C201.295 46.5718 207.271 42.6429 211.196 37.999C215.149 33.3222 217.075 27.8454 214.702 21.5192L214 21.7825ZM195 49.2825L194.63 48.6303C176.241 59.0674 154.516 63.4565 136.328 54.6081L136 55.2825L135.672 55.957C154.484 65.1086 176.759 60.4977 195.37 49.9348L195 49.2825ZM136 55.2825L136.328 54.6081C127.132 50.1341 121.585 45.6524 118.659 40.9833C115.757 36.3517 115.379 31.4454 116.728 25.9617L116 25.7826L115.272 25.6034C113.85 31.3836 114.222 36.7273 117.388 41.7797C120.53 46.7946 126.368 51.431 135.672 55.957L136 55.2825ZM116 25.7826L116.728 25.9617C118.178 20.0699 122.77 16.0726 128.666 13.7306C134.563 11.3876 141.67 10.7471 147.907 11.5267L148 10.7825L148.093 10.0383C141.647 9.23254 134.28 9.88615 128.112 12.3366C121.941 14.788 116.876 19.0835 115.272 25.6034L116 25.7826ZM148 10.7825L147.907 11.5267C163.455 13.4703 168.274 26.0243 172.349 33.1546L173 32.7825L173.651 32.4104C169.726 25.5409 164.545 12.0948 148.093 10.0383L148 10.7825ZM173 32.7825L172.349 33.1546C175.571 38.7937 177.546 43.244 179.694 47.4912C181.838 51.7315 184.125 55.7046 187.924 60.2627L188.5 59.7825L189.076 59.3024C185.375 54.8605 183.146 50.9939 181.033 46.8143C178.923 42.6416 176.898 38.0918 173.651 32.4104L173 32.7825ZM188.5 59.7825L187.924 60.2627C195.499 69.3528 206.086 70.2 217.207 67.0033L217 66.2825L216.793 65.5617C205.971 68.6723 196.117 67.7519 189.076 59.3024L188.5 59.7825ZM217 66.2825L217.207 67.0033C227.496 64.0461 232.208 54.1538 233.634 43.6339C235.062 33.0952 233.249 21.6148 230.181 14.9683L229.5 15.2826L228.819 15.5969C231.751 21.9504 233.542 33.1375 232.147 43.4325C230.75 53.7464 226.213 62.8541 216.793 65.5617L217 66.2825ZM229.5 15.2826L230.181 14.9683C227.131 8.36107 223.083 3.92606 218.475 1.69009C213.85 -0.55359 208.748 -0.53998 203.708 1.59183L204 2.28258L204.292 2.97333C208.978 0.991215 213.626 1.00483 217.82 3.03963C222.03 5.08215 225.869 9.2041 228.819 15.5969L229.5 15.2826ZM204 2.28258L203.708 1.59183C199.955 3.1792 197.844 6.05789 196.974 9.61677C196.114 13.1384 196.467 17.3116 197.555 21.5871C199.733 30.1405 204.928 39.3811 209.928 45.2681L210.5 44.7826L211.072 44.2971C206.201 38.5625 201.124 29.5231 199.009 21.2169C197.951 17.0626 197.652 13.1611 198.432 9.97295C199.202 6.82208 201.023 4.35596 204.292 2.97333L204 2.28258ZM210.5 44.7826L209.928 45.2681C214.656 50.8338 218.708 55.1152 223.17 58.3308C227.648 61.5578 232.512 63.6938 238.847 65.0167L239 64.2825L239.153 63.5484C233.005 62.2644 228.339 60.207 224.047 57.1139C219.74 54.0096 215.783 49.8445 211.072 44.2971L210.5 44.7826ZM26 32.7825V32.0325C18.4984 32.0325 16.2461 32.0505 14.2433 32.0685C12.2455 32.0864 10.4978 32.1044 4 32.1044V32.8544V33.6044C10.5022 33.6044 12.2545 33.5864 14.2567 33.5684C16.2539 33.5505 18.5016 33.5325 26 33.5325V32.7825ZM26 32.7825V33.5325C37.6343 33.5325 47.1632 36.2522 57.4307 39.0069C67.6921 41.76 78.6464 44.5325 93 44.5325V43.7825V43.0325C78.8536 43.0325 68.0579 40.3051 57.8193 37.5582C47.5868 34.8128 37.8657 32.0325 26 32.0325V32.7825ZM93 43.7825V44.5325C101.383 44.5325 108.887 44.1399 114.931 41.9541C121.035 39.7472 125.642 35.7151 128.206 28.5348L127.5 28.2825L126.794 28.0303C124.391 34.76 120.133 38.478 114.421 40.5435C108.65 42.6303 101.388 43.0325 93 43.0325V43.7825ZM346.5 29.2825L347.21 29.0416C346.514 26.9907 345.044 24.9789 343.039 23.0586C341.03 21.1332 338.447 19.2649 335.469 17.507C329.513 13.9914 321.908 10.8799 313.963 8.62635C306.019 6.37279 297.699 4.96744 290.309 4.88521C282.945 4.80329 276.38 6.03298 272.059 9.17598L272.5 9.78254L272.941 10.3891C276.87 7.53209 283.037 6.3044 290.292 6.38512C297.52 6.46554 305.704 7.84287 313.554 10.0694C321.404 12.296 328.884 15.3621 334.707 18.7988C337.618 20.5172 340.099 22.3188 342.002 24.1417C343.909 25.9697 345.2 27.7846 345.79 29.5235L346.5 29.2825ZM243 48.2825L242.453 48.7952C244.737 51.2342 247.175 52.5315 249.756 52.8854C252.322 53.2372 254.942 52.6443 257.582 51.4617C262.826 49.1118 268.381 44.3165 274.099 39.3623C279.863 34.3682 285.828 29.1774 291.994 25.8418C298.142 22.5159 304.38 21.0936 310.736 23.4845L311 22.7825L311.264 22.0806C304.347 19.4788 297.637 21.0835 291.28 24.5225C284.941 27.9518 278.847 33.2638 273.117 38.2286C267.34 43.2334 261.967 47.8532 256.968 50.0929C254.486 51.2051 252.157 51.7006 249.959 51.3993C247.776 51.0999 245.638 50.0024 243.547 47.7699L243 48.2825ZM223 29.2825L223.737 29.1459C222.381 21.8244 226.565 13.6202 232.919 8.35638C239.27 3.09544 247.482 1.00552 254.084 5.40657L254.5 4.78253L254.916 4.15849C247.537 -0.760946 238.577 1.7211 231.962 7.20126C225.35 12.6785 220.774 21.3846 222.263 29.4191L223 29.2825ZM254.5 4.78253L254.084 5.40657C256.441 6.97804 257.764 8.55577 258.383 10.1026C258.998 11.6373 258.957 13.2302 258.416 14.9126C257.312 18.3473 254.193 21.9762 250.711 25.7764C247.291 29.5076 243.538 33.3854 241.48 37.1922C240.443 39.1106 239.798 41.0754 239.87 43.0505C239.943 45.0467 240.745 46.9718 242.453 48.7952L243 48.2825L243.547 47.7699C242.056 46.177 241.427 44.5868 241.369 42.996C241.311 41.3841 241.835 39.6903 242.8 37.9055C244.746 34.3062 248.324 30.6006 251.816 26.7899C255.246 23.0483 258.621 19.1768 259.844 15.3717C260.467 13.4342 260.548 11.4723 259.776 9.54467C259.008 7.62913 257.434 5.83702 254.916 4.15849L254.5 4.78253ZM239 64.2825L238.847 65.0167C246.551 66.6256 258.503 68.3105 268.558 67.6131C273.577 67.2649 278.207 66.3184 281.604 64.4086C285.045 62.4742 287.25 59.5257 287.25 55.2825H286.5H285.75C285.75 58.8797 283.936 61.377 280.869 63.1011C277.759 64.8497 273.391 65.7742 268.454 66.1167C258.597 66.8004 246.798 65.145 239.153 63.5484L239 64.2825ZM286.5 55.2825H287.25C287.25 51.8777 286.271 49.1927 284.509 47.0993C282.758 45.0198 280.283 43.5819 277.386 42.5669C271.618 40.5461 263.935 40.1259 256.271 39.8456C248.543 39.5629 240.822 39.4221 234.77 38.0283C228.715 36.6336 224.648 34.0636 223.737 29.1459L223 29.2825L222.263 29.4191C223.343 35.2515 228.21 38.0565 234.434 39.49C240.661 40.9243 248.567 41.0647 256.216 41.3446C263.929 41.6267 271.375 42.0502 276.89 43.9826C279.635 44.9441 281.841 46.2601 283.361 48.0654C284.869 49.8567 285.75 52.1874 285.75 55.2825H286.5ZM463.5 32.8544V33.6044C463.509 33.6044 463.517 33.6044 463.526 33.6044C463.535 33.6044 463.544 33.6044 463.552 33.6044C463.561 33.6044 463.57 33.6044 463.579 33.6044C463.587 33.6044 463.596 33.6044 463.605 33.6044C463.614 33.6044 463.622 33.6044 463.631 33.6044C463.64 33.6044 463.649 33.6044 463.657 33.6044C463.666 33.6044 463.675 33.6044 463.684 33.6044C463.692 33.6044 463.701 33.6044 463.71 33.6044C463.719 33.6044 463.728 33.6044 463.736 33.6044C463.745 33.6044 463.754 33.6044 463.763 33.6044C463.771 33.6044 463.78 33.6044 463.789 33.6044C463.798 33.6044 463.807 33.6044 463.815 33.6044C463.824 33.6044 463.833 33.6044 463.842 33.6044C463.851 33.6044 463.859 33.6044 463.868 33.6044C463.877 33.6044 463.886 33.6044 463.895 33.6044C463.903 33.6044 463.912 33.6044 463.921 33.6044C463.93 33.6044 463.939 33.6044 463.948 33.6044C463.956 33.6044 463.965 33.6044 463.974 33.6044C463.983 33.6044 463.992 33.6044 464 33.6044C464.009 33.6044 464.018 33.6044 464.027 33.6044C464.036 33.6044 464.045 33.6044 464.054 33.6044C464.062 33.6044 464.071 33.6044 464.08 33.6044C464.089 33.6044 464.098 33.6044 464.107 33.6044C464.115 33.6044 464.124 33.6044 464.133 33.6044C464.142 33.6044 464.151 33.6044 464.16 33.6044C464.169 33.6044 464.177 33.6044 464.186 33.6044C464.195 33.6044 464.204 33.6044 464.213 33.6044C464.222 33.6044 464.231 33.6044 464.24 33.6044C464.248 33.6044 464.257 33.6044 464.266 33.6044C464.275 33.6044 464.284 33.6044 464.293 33.6044C464.302 33.6044 464.311 33.6044 464.32 33.6044C464.328 33.6044 464.337 33.6044 464.346 33.6044C464.355 33.6044 464.364 33.6044 464.373 33.6044C464.382 33.6044 464.391 33.6044 464.4 33.6044C464.409 33.6044 464.417 33.6044 464.426 33.6044C464.435 33.6044 464.444 33.6044 464.453 33.6044C464.462 33.6044 464.471 33.6044 464.48 33.6044C464.489 33.6044 464.498 33.6044 464.507 33.6044C464.516 33.6044 464.525 33.6044 464.533 33.6044C464.542 33.6044 464.551 33.6044 464.56 33.6044C464.569 33.6044 464.578 33.6044 464.587 33.6044C464.596 33.6044 464.605 33.6044 464.614 33.6044C464.623 33.6044 464.632 33.6044 464.641 33.6044C464.65 33.6044 464.659 33.6044 464.668 33.6044C464.677 33.6044 464.685 33.6044 464.694 33.6044C464.703 33.6044 464.712 33.6044 464.721 33.6044C464.73 33.6044 464.739 33.6044 464.748 33.6044C464.757 33.6044 464.766 33.6044 464.775 33.6044C464.784 33.6044 464.793 33.6044 464.802 33.6044C464.811 33.6044 464.82 33.6044 464.829 33.6044C464.838 33.6044 464.847 33.6044 464.856 33.6044C464.865 33.6044 464.874 33.6044 464.883 33.6044C464.892 33.6044 464.901 33.6044 464.91 33.6044C464.919 33.6044 464.928 33.6044 464.937 33.6044C464.946 33.6044 464.955 33.6044 464.964 33.6044C464.973 33.6044 464.982 33.6044 464.991 33.6044C465 33.6044 465.009 33.6044 465.018 33.6044C465.027 33.6044 465.036 33.6044 465.045 33.6044C465.054 33.6044 465.063 33.6044 465.072 33.6044C465.081 33.6044 465.09 33.6044 465.099 33.6044C465.108 33.6044 465.117 33.6044 465.126 33.6044C465.135 33.6044 465.144 33.6044 465.153 33.6044C465.162 33.6044 465.171 33.6044 465.18 33.6044C465.189 33.6044 465.198 33.6044 465.207 33.6044C465.216 33.6044 465.225 33.6044 465.235 33.6044C465.244 33.6044 465.253 33.6044 465.262 33.6044C465.271 33.6044 465.28 33.6044 465.289 33.6044C465.298 33.6044 465.307 33.6044 465.316 33.6044C465.325 33.6044 465.334 33.6044 465.343 33.6044C465.352 33.6044 465.361 33.6044 465.37 33.6044C465.379 33.6044 465.388 33.6044 465.397 33.6044C465.407 33.6044 465.416 33.6044 465.425 33.6044C465.434 33.6044 465.443 33.6044 465.452 33.6044C465.461 33.6044 465.47 33.6044 465.479 33.6044C465.488 33.6044 465.497 33.6044 465.506 33.6044C465.515 33.6044 465.525 33.6044 465.534 33.6044C465.543 33.6044 465.552 33.6044 465.561 33.6044C465.57 33.6044 465.579 33.6044 465.588 33.6044C465.597 33.6044 465.606 33.6044 465.615 33.6044C465.624 33.6044 465.634 33.6044 465.643 33.6044C465.652 33.6044 465.661 33.6044 465.67 33.6044C465.679 33.6044 465.688 33.6044 465.697 33.6044C465.706 33.6044 465.716 33.6044 465.725 33.6044C465.734 33.6044 465.743 33.6044 465.752 33.6044C465.761 33.6044 465.77 33.6044 465.779 33.6044C465.788 33.6044 465.798 33.6044 465.807 33.6044C465.816 33.6044 465.825 33.6044 465.834 33.6044C465.843 33.6044 465.852 33.6044 465.861 33.6044C465.87 33.6044 465.88 33.6044 465.889 33.6044C465.898 33.6044 465.907 33.6044 465.916 33.6044C465.925 33.6044 465.934 33.6044 465.944 33.6044C465.953 33.6044 465.962 33.6044 465.971 33.6044C465.98 33.6044 465.989 33.6044 465.998 33.6044C466.007 33.6044 466.017 33.6044 466.026 33.6044C466.035 33.6044 466.044 33.6044 466.053 33.6044C466.062 33.6044 466.072 33.6044 466.081 33.6044C466.09 33.6044 466.099 33.6044 466.108 33.6044C466.117 33.6044 466.126 33.6044 466.136 33.6044C466.145 33.6044 466.154 33.6044 466.163 33.6044C466.172 33.6044 466.181 33.6044 466.191 33.6044C466.2 33.6044 466.209 33.6044 466.218 33.6044C466.227 33.6044 466.236 33.6044 466.246 33.6044C466.255 33.6044 466.264 33.6044 466.273 33.6044C466.282 33.6044 466.291 33.6044 466.301 33.6044C466.31 33.6044 466.319 33.6044 466.328 33.6044C466.337 33.6044 466.346 33.6044 466.356 33.6044C466.365 33.6044 466.374 33.6044 466.383 33.6044C466.392 33.6044 466.401 33.6044 466.411 33.6044C466.42 33.6044 466.429 33.6044 466.438 33.6044C466.447 33.6044 466.457 33.6044 466.466 33.6044C466.475 33.6044 466.484 33.6044 466.493 33.6044C466.503 33.6044 466.512 33.6044 466.521 33.6044C466.53 33.6044 466.539 33.6044 466.549 33.6044C466.558 33.6044 466.567 33.6044 466.576 33.6044C466.585 33.6044 466.595 33.6044 466.604 33.6044C466.613 33.6044 466.622 33.6044 466.631 33.6044C466.641 33.6044 466.65 33.6044 466.659 33.6044C466.668 33.6044 466.677 33.6044 466.687 33.6044C466.696 33.6044 466.705 33.6044 466.714 33.6044C466.723 33.6044 466.733 33.6044 466.742 33.6044C466.751 33.6044 466.76 33.6044 466.769 33.6044C466.779 33.6044 466.788 33.6044 466.797 33.6044C466.806 33.6044 466.816 33.6044 466.825 33.6044C466.834 33.6044 466.843 33.6044 466.852 33.6044C466.862 33.6044 466.871 33.6044 466.88 33.6044C466.889 33.6044 466.899 33.6044 466.908 33.6044C466.917 33.6044 466.926 33.6044 466.935 33.6044C466.945 33.6044 466.954 33.6044 466.963 33.6044C466.972 33.6044 466.982 33.6044 466.991 33.6044C467 33.6044 467.009 33.6044 467.019 33.6044C467.028 33.6044 467.037 33.6044 467.046 33.6044C467.056 33.6044 467.065 33.6044 467.074 33.6044C467.083 33.6044 467.092 33.6044 467.102 33.6044C467.111 33.6044 467.12 33.6044 467.129 33.6044C467.139 33.6044 467.148 33.6044 467.157 33.6044C467.166 33.6044 467.176 33.6044 467.185 33.6044C467.194 33.6044 467.203 33.6044 467.213 33.6044C467.222 33.6044 467.231 33.6044 467.24 33.6044C467.25 33.6044 467.259 33.6044 467.268 33.6044C467.277 33.6044 467.287 33.6044 467.296 33.6044C467.305 33.6044 467.314 33.6044 467.324 33.6044C467.333 33.6044 467.342 33.6044 467.351 33.6044C467.361 33.6044 467.37 33.6044 467.379 33.6044C467.389 33.6044 467.398 33.6044 467.407 33.6044C467.416 33.6044 467.426 33.6044 467.435 33.6044C467.444 33.6044 467.453 33.6044 467.463 33.6044C467.472 33.6044 467.481 33.6044 467.49 33.6044C467.5 33.6044 467.509 33.6044 467.518 33.6044C467.527 33.6044 467.537 33.6044 467.546 33.6044C467.555 33.6044 467.565 33.6044 467.574 33.6044C467.583 33.6044 467.592 33.6044 467.602 33.6044C467.611 33.6044 467.62 33.6044 467.629 33.6044C467.639 33.6044 467.648 33.6044 467.657 33.6044C467.667 33.6044 467.676 33.6044 467.685 33.6044C467.694 33.6044 467.704 33.6044 467.713 33.6044C467.722 33.6044 467.732 33.6044 467.741 33.6044C467.75 33.6044 467.759 33.6044 467.769 33.6044C467.778 33.6044 467.787 33.6044 467.796 33.6044C467.806 33.6044 467.815 33.6044 467.824 33.6044C467.834 33.6044 467.843 33.6044 467.852 33.6044C467.861 33.6044 467.871 33.6044 467.88 33.6044C467.889 33.6044 467.899 33.6044 467.908 33.6044C467.917 33.6044 467.926 33.6044 467.936 33.6044C467.945 33.6044 467.954 33.6044 467.964 33.6044C467.973 33.6044 467.982 33.6044 467.991 33.6044C468.001 33.6044 468.01 33.6044 468.019 33.6044C468.029 33.6044 468.038 33.6044 468.047 33.6044C468.057 33.6044 468.066 33.6044 468.075 33.6044C468.084 33.6044 468.094 33.6044 468.103 33.6044C468.112 33.6044 468.122 33.6044 468.131 33.6044C468.14 33.6044 468.149 33.6044 468.159 33.6044C468.168 33.6044 468.177 33.6044 468.187 33.6044C468.196 33.6044 468.205 33.6044 468.215 33.6044C468.224 33.6044 468.233 33.6044 468.242 33.6044C468.252 33.6044 468.261 33.6044 468.27 33.6044C468.28 33.6044 468.289 33.6044 468.298 33.6044C468.307 33.6044 468.317 33.6044 468.326 33.6044C468.335 33.6044 468.345 33.6044 468.354 33.6044C468.363 33.6044 468.373 33.6044 468.382 33.6044C468.391 33.6044 468.401 33.6044 468.41 33.6044C468.419 33.6044 468.428 33.6044 468.438 33.6044C468.447 33.6044 468.456 33.6044 468.466 33.6044C468.475 33.6044 468.484 33.6044 468.494 33.6044C468.503 33.6044 468.512 33.6044 468.521 33.6044C468.531 33.6044 468.54 33.6044 468.549 33.6044C468.559 33.6044 468.568 33.6044 468.577 33.6044C468.587 33.6044 468.596 33.6044 468.605 33.6044C468.615 33.6044 468.624 33.6044 468.633 33.6044C468.642 33.6044 468.652 33.6044 468.661 33.6044C468.67 33.6044 468.68 33.6044 468.689 33.6044C468.698 33.6044 468.708 33.6044 468.717 33.6044C468.726 33.6044 468.735 33.6044 468.745 33.6044C468.754 33.6044 468.763 33.6044 468.773 33.6044C468.782 33.6044 468.791 33.6044 468.801 33.6044C468.81 33.6044 468.819 33.6044 468.829 33.6044C468.838 33.6044 468.847 33.6044 468.856 33.6044C468.866 33.6044 468.875 33.6044 468.884 33.6044C468.894 33.6044 468.903 33.6044 468.912 33.6044C468.922 33.6044 468.931 33.6044 468.94 33.6044C468.95 33.6044 468.959 33.6044 468.968 33.6044C468.977 33.6044 468.987 33.6044 468.996 33.6044C469.005 33.6044 469.015 33.6044 469.024 33.6044C469.033 33.6044 469.043 33.6044 469.052 33.6044C469.061 33.6044 469.071 33.6044 469.08 33.6044C469.089 33.6044 469.099 33.6044 469.108 33.6044C469.117 33.6044 469.126 33.6044 469.136 33.6044C469.145 33.6044 469.154 33.6044 469.164 33.6044C469.173 33.6044 469.182 33.6044 469.192 33.6044C469.201 33.6044 469.21 33.6044 469.22 33.6044C469.229 33.6044 469.238 33.6044 469.247 33.6044C469.257 33.6044 469.266 33.6044 469.275 33.6044C469.285 33.6044 469.294 33.6044 469.303 33.6044C469.313 33.6044 469.322 33.6044 469.331 33.6044C469.341 33.6044 469.35 33.6044 469.359 33.6044C469.368 33.6044 469.378 33.6044 469.387 33.6044C469.396 33.6044 469.406 33.6044 469.415 33.6044C469.424 33.6044 469.434 33.6044 469.443 33.6044C469.452 33.6044 469.461 33.6044 469.471 33.6044C469.48 33.6044 469.489 33.6044 469.499 33.6044C469.508 33.6044 469.517 33.6044 469.527 33.6044C469.536 33.6044 469.545 33.6044 469.555 33.6044C469.564 33.6044 469.573 33.6044 469.582 33.6044C469.592 33.6044 469.601 33.6044 469.61 33.6044C469.62 33.6044 469.629 33.6044 469.638 33.6044C469.648 33.6044 469.657 33.6044 469.666 33.6044C469.675 33.6044 469.685 33.6044 469.694 33.6044C469.703 33.6044 469.713 33.6044 469.722 33.6044C469.731 33.6044 469.741 33.6044 469.75 33.6044C469.759 33.6044 469.768 33.6044 469.778 33.6044C469.787 33.6044 469.796 33.6044 469.806 33.6044C469.815 33.6044 469.824 33.6044 469.833 33.6044C469.843 33.6044 469.852 33.6044 469.861 33.6044C469.871 33.6044 469.88 33.6044 469.889 33.6044C469.899 33.6044 469.908 33.6044 469.917 33.6044C469.926 33.6044 469.936 33.6044 469.945 33.6044C469.954 33.6044 469.964 33.6044 469.973 33.6044C469.982 33.6044 469.991 33.6044 470.001 33.6044C470.01 33.6044 470.019 33.6044 470.029 33.6044C470.038 33.6044 470.047 33.6044 470.057 33.6044C470.066 33.6044 470.075 33.6044 470.084 33.6044C470.094 33.6044 470.103 33.6044 470.112 33.6044C470.122 33.6044 470.131 33.6044 470.14 33.6044C470.149 33.6044 470.159 33.6044 470.168 33.6044C470.177 33.6044 470.186 33.6044 470.196 33.6044C470.205 33.6044 470.214 33.6044 470.224 33.6044C470.233 33.6044 470.242 33.6044 470.251 33.6044C470.261 33.6044 470.27 33.6044 470.279 33.6044C470.289 33.6044 470.298 33.6044 470.307 33.6044C470.316 33.6044 470.326 33.6044 470.335 33.6044C470.344 33.6044 470.354 33.6044 470.363 33.6044C470.372 33.6044 470.381 33.6044 470.391 33.6044C470.4 33.6044 470.409 33.6044 470.418 33.6044C470.428 33.6044 470.437 33.6044 470.446 33.6044C470.456 33.6044 470.465 33.6044 470.474 33.6044C470.483 33.6044 470.493 33.6044 470.502 33.6044C470.511 33.6044 470.52 33.6044 470.53 33.6044C470.539 33.6044 470.548 33.6044 470.557 33.6044C470.567 33.6044 470.576 33.6044 470.585 33.6044C470.595 33.6044 470.604 33.6044 470.613 33.6044C470.622 33.6044 470.632 33.6044 470.641 33.6044C470.65 33.6044 470.659 33.6044 470.669 33.6044C470.678 33.6044 470.687 33.6044 470.696 33.6044C470.706 33.6044 470.715 33.6044 470.724 33.6044C470.733 33.6044 470.743 33.6044 470.752 33.6044C470.761 33.6044 470.77 33.6044 470.78 33.6044C470.789 33.6044 470.798 33.6044 470.807 33.6044C470.817 33.6044 470.826 33.6044 470.835 33.6044C470.844 33.6044 470.854 33.6044 470.863 33.6044C470.872 33.6044 470.881 33.6044 470.891 33.6044C470.9 33.6044 470.909 33.6044 470.918 33.6044C470.928 33.6044 470.937 33.6044 470.946 33.6044C470.955 33.6044 470.965 33.6044 470.974 33.6044C470.983 33.6044 470.992 33.6044 471.001 33.6044C471.011 33.6044 471.02 33.6044 471.029 33.6044C471.038 33.6044 471.048 33.6044 471.057 33.6044C471.066 33.6044 471.075 33.6044 471.085 33.6044C471.094 33.6044 471.103 33.6044 471.112 33.6044C471.121 33.6044 471.131 33.6044 471.14 33.6044C471.149 33.6044 471.158 33.6044 471.168 33.6044C471.177 33.6044 471.186 33.6044 471.195 33.6044C471.204 33.6044 471.214 33.6044 471.223 33.6044C471.232 33.6044 471.241 33.6044 471.251 33.6044C471.26 33.6044 471.269 33.6044 471.278 33.6044C471.287 33.6044 471.297 33.6044 471.306 33.6044C471.315 33.6044 471.324 33.6044 471.333 33.6044C471.343 33.6044 471.352 33.6044 471.361 33.6044C471.37 33.6044 471.379 33.6044 471.389 33.6044C471.398 33.6044 471.407 33.6044 471.416 33.6044C471.425 33.6044 471.435 33.6044 471.444 33.6044C471.453 33.6044 471.462 33.6044 471.471 33.6044C471.481 33.6044 471.49 33.6044 471.499 33.6044C471.508 33.6044 471.517 33.6044 471.527 33.6044C471.536 33.6044 471.545 33.6044 471.554 33.6044C471.563 33.6044 471.573 33.6044 471.582 33.6044C471.591 33.6044 471.6 33.6044 471.609 33.6044C471.618 33.6044 471.628 33.6044 471.637 33.6044C471.646 33.6044 471.655 33.6044 471.664 33.6044C471.674 33.6044 471.683 33.6044 471.692 33.6044C471.701 33.6044 471.71 33.6044 471.719 33.6044C471.729 33.6044 471.738 33.6044 471.747 33.6044C471.756 33.6044 471.765 33.6044 471.774 33.6044C471.784 33.6044 471.793 33.6044 471.802 33.6044C471.811 33.6044 471.82 33.6044 471.829 33.6044C471.839 33.6044 471.848 33.6044 471.857 33.6044C471.866 33.6044 471.875 33.6044 471.884 33.6044C471.893 33.6044 471.903 33.6044 471.912 33.6044C471.921 33.6044 471.93 33.6044 471.939 33.6044C471.948 33.6044 471.958 33.6044 471.967 33.6044C471.976 33.6044 471.985 33.6044 471.994 33.6044C472.003 33.6044 472.012 33.6044 472.022 33.6044C472.031 33.6044 472.04 33.6044 472.049 33.6044C472.058 33.6044 472.067 33.6044 472.076 33.6044C472.086 33.6044 472.095 33.6044 472.104 33.6044C472.113 33.6044 472.122 33.6044 472.131 33.6044C472.14 33.6044 472.149 33.6044 472.159 33.6044C472.168 33.6044 472.177 33.6044 472.186 33.6044C472.195 33.6044 472.204 33.6044 472.213 33.6044C472.222 33.6044 472.231 33.6044 472.241 33.6044C472.25 33.6044 472.259 33.6044 472.268 33.6044C472.277 33.6044 472.286 33.6044 472.295 33.6044C472.304 33.6044 472.313 33.6044 472.323 33.6044C472.332 33.6044 472.341 33.6044 472.35 33.6044C472.359 33.6044 472.368 33.6044 472.377 33.6044C472.386 33.6044 472.395 33.6044 472.404 33.6044C472.414 33.6044 472.423 33.6044 472.432 33.6044C472.441 33.6044 472.45 33.6044 472.459 33.6044C472.468 33.6044 472.477 33.6044 472.486 33.6044C472.495 33.6044 472.504 33.6044 472.513 33.6044C472.523 33.6044 472.532 33.6044 472.541 33.6044C472.55 33.6044 472.559 33.6044 472.568 33.6044C472.577 33.6044 472.586 33.6044 472.595 33.6044C472.604 33.6044 472.613 33.6044 472.622 33.6044C472.631 33.6044 472.64 33.6044 472.649 33.6044C472.659 33.6044 472.668 33.6044 472.677 33.6044C472.686 33.6044 472.695 33.6044 472.704 33.6044C472.713 33.6044 472.722 33.6044 472.731 33.6044C472.74 33.6044 472.749 33.6044 472.758 33.6044C472.767 33.6044 472.776 33.6044 472.785 33.6044C472.794 33.6044 472.803 33.6044 472.812 33.6044C472.821 33.6044 472.83 33.6044 472.839 33.6044C472.848 33.6044 472.858 33.6044 472.867 33.6044C472.876 33.6044 472.885 33.6044 472.894 33.6044C472.903 33.6044 472.912 33.6044 472.921 33.6044C472.93 33.6044 472.939 33.6044 472.948 33.6044C472.957 33.6044 472.966 33.6044 472.975 33.6044C472.984 33.6044 472.993 33.6044 473.002 33.6044C473.011 33.6044 473.02 33.6044 473.029 33.6044C473.038 33.6044 473.047 33.6044 473.056 33.6044C473.065 33.6044 473.074 33.6044 473.083 33.6044C473.092 33.6044 473.101 33.6044 473.11 33.6044C473.119 33.6044 473.128 33.6044 473.137 33.6044C473.146 33.6044 473.155 33.6044 473.164 33.6044C473.173 33.6044 473.182 33.6044 473.191 33.6044C473.2 33.6044 473.209 33.6044 473.218 33.6044C473.227 33.6044 473.236 33.6044 473.245 33.6044C473.253 33.6044 473.262 33.6044 473.271 33.6044C473.28 33.6044 473.289 33.6044 473.298 33.6044C473.307 33.6044 473.316 33.6044 473.325 33.6044C473.334 33.6044 473.343 33.6044 473.352 33.6044C473.361 33.6044 473.37 33.6044 473.379 33.6044C473.388 33.6044 473.397 33.6044 473.406 33.6044C473.415 33.6044 473.424 33.6044 473.433 33.6044C473.441 33.6044 473.45 33.6044 473.459 33.6044C473.468 33.6044 473.477 33.6044 473.486 33.6044C473.495 33.6044 473.504 33.6044 473.513 33.6044C473.522 33.6044 473.531 33.6044 473.54 33.6044C473.549 33.6044 473.558 33.6044 473.566 33.6044C473.575 33.6044 473.584 33.6044 473.593 33.6044C473.602 33.6044 473.611 33.6044 473.62 33.6044C473.629 33.6044 473.638 33.6044 473.647 33.6044C473.656 33.6044 473.664 33.6044 473.673 33.6044C473.682 33.6044 473.691 33.6044 473.7 33.6044C473.709 33.6044 473.718 33.6044 473.727 33.6044C473.736 33.6044 473.744 33.6044 473.753 33.6044C473.762 33.6044 473.771 33.6044 473.78 33.6044C473.789 33.6044 473.798 33.6044 473.807 33.6044C473.815 33.6044 473.824 33.6044 473.833 33.6044C473.842 33.6044 473.851 33.6044 473.86 33.6044C473.869 33.6044 473.877 33.6044 473.886 33.6044C473.895 33.6044 473.904 33.6044 473.913 33.6044C473.922 33.6044 473.931 33.6044 473.939 33.6044C473.948 33.6044 473.957 33.6044 473.966 33.6044C473.975 33.6044 473.984 33.6044 473.992 33.6044C474.001 33.6044 474.01 33.6044 474.019 33.6044C474.028 33.6044 474.037 33.6044 474.045 33.6044C474.054 33.6044 474.063 33.6044 474.072 33.6044C474.081 33.6044 474.09 33.6044 474.098 33.6044C474.107 33.6044 474.116 33.6044 474.125 33.6044C474.134 33.6044 474.142 33.6044 474.151 33.6044C474.16 33.6044 474.169 33.6044 474.178 33.6044C474.186 33.6044 474.195 33.6044 474.204 33.6044C474.213 33.6044 474.222 33.6044 474.23 33.6044C474.239 33.6044 474.248 33.6044 474.257 33.6044C474.265 33.6044 474.274 33.6044 474.283 33.6044C474.292 33.6044 474.301 33.6044 474.309 33.6044C474.318 33.6044 474.327 33.6044 474.336 33.6044C474.344 33.6044 474.353 33.6044 474.362 33.6044C474.371 33.6044 474.379 33.6044 474.388 33.6044C474.397 33.6044 474.406 33.6044 474.414 33.6044C474.423 33.6044 474.432 33.6044 474.441 33.6044C474.449 33.6044 474.458 33.6044 474.467 33.6044C474.476 33.6044 474.484 33.6044 474.493 33.6044C474.502 33.6044 474.511 33.6044 474.519 33.6044C474.528 33.6044 474.537 33.6044 474.545 33.6044C474.554 33.6044 474.563 33.6044 474.572 33.6044C474.58 33.6044 474.589 33.6044 474.598 33.6044C474.606 33.6044 474.615 33.6044 474.624 33.6044C474.633 33.6044 474.641 33.6044 474.65 33.6044C474.659 33.6044 474.667 33.6044 474.676 33.6044C474.685 33.6044 474.693 33.6044 474.702 33.6044C474.711 33.6044 474.719 33.6044 474.728 33.6044C474.737 33.6044 474.745 33.6044 474.754 33.6044C474.763 33.6044 474.771 33.6044 474.78 33.6044C474.789 33.6044 474.797 33.6044 474.806 33.6044C474.815 33.6044 474.823 33.6044 474.832 33.6044C474.841 33.6044 474.849 33.6044 474.858 33.6044C474.867 33.6044 474.875 33.6044 474.884 33.6044C474.893 33.6044 474.901 33.6044 474.91 33.6044C474.919 33.6044 474.927 33.6044 474.936 33.6044C474.944 33.6044 474.953 33.6044 474.962 33.6044C474.97 33.6044 474.979 33.6044 474.988 33.6044C474.996 33.6044 475.005 33.6044 475.013 33.6044C475.022 33.6044 475.031 33.6044 475.039 33.6044C475.048 33.6044 475.056 33.6044 475.065 33.6044C475.074 33.6044 475.082 33.6044 475.091 33.6044C475.099 33.6044 475.108 33.6044 475.117 33.6044C475.125 33.6044 475.134 33.6044 475.142 33.6044C475.151 33.6044 475.159 33.6044 475.168 33.6044C475.177 33.6044 475.185 33.6044 475.194 33.6044C475.202 33.6044 475.211 33.6044 475.219 33.6044C475.228 33.6044 475.236 33.6044 475.245 33.6044C475.254 33.6044 475.262 33.6044 475.271 33.6044C475.279 33.6044 475.288 33.6044 475.296 33.6044C475.305 33.6044 475.313 33.6044 475.322 33.6044C475.33 33.6044 475.339 33.6044 475.348 33.6044C475.356 33.6044 475.365 33.6044 475.373 33.6044C475.382 33.6044 475.39 33.6044 475.399 33.6044C475.407 33.6044 475.416 33.6044 475.424 33.6044C475.433 33.6044 475.441 33.6044 475.45 33.6044C475.458 33.6044 475.467 33.6044 475.475 33.6044C475.484 33.6044 475.492 33.6044 475.501 33.6044C475.509 33.6044 475.518 33.6044 475.526 33.6044C475.534 33.6044 475.543 33.6044 475.551 33.6044C475.56 33.6044 475.568 33.6044 475.577 33.6044C475.585 33.6044 475.594 33.6044 475.602 33.6044C475.611 33.6044 475.619 33.6044 475.628 33.6044C475.636 33.6044 475.644 33.6044 475.653 33.6044C475.661 33.6044 475.67 33.6044 475.678 33.6044C475.687 33.6044 475.695 33.6044 475.704 33.6044C475.712 33.6044 475.72 33.6044 475.729 33.6044C475.737 33.6044 475.746 33.6044 475.754 33.6044C475.762 33.6044 475.771 33.6044 475.779 33.6044C475.788 33.6044 475.796 33.6044 475.804 33.6044C475.813 33.6044 475.821 33.6044 475.83 33.6044C475.838 33.6044 475.846 33.6044 475.855 33.6044C475.863 33.6044 475.872 33.6044 475.88 33.6044C475.888 33.6044 475.897 33.6044 475.905 33.6044C475.913 33.6044 475.922 33.6044 475.93 33.6044C475.939 33.6044 475.947 33.6044 475.955 33.6044C475.964 33.6044 475.972 33.6044 475.98 33.6044C475.989 33.6044 475.997 33.6044 476.005 33.6044C476.014 33.6044 476.022 33.6044 476.03 33.6044C476.039 33.6044 476.047 33.6044 476.055 33.6044C476.064 33.6044 476.072 33.6044 476.08 33.6044C476.089 33.6044 476.097 33.6044 476.105 33.6044C476.114 33.6044 476.122 33.6044 476.13 33.6044C476.139 33.6044 476.147 33.6044 476.155 33.6044C476.163 33.6044 476.172 33.6044 476.18 33.6044C476.188 33.6044 476.197 33.6044 476.205 33.6044C476.213 33.6044 476.221 33.6044 476.23 33.6044C476.238 33.6044 476.246 33.6044 476.254 33.6044C476.263 33.6044 476.271 33.6044 476.279 33.6044C476.288 33.6044 476.296 33.6044 476.304 33.6044C476.312 33.6044 476.32 33.6044 476.329 33.6044C476.337 33.6044 476.345 33.6044 476.353 33.6044C476.362 33.6044 476.37 33.6044 476.378 33.6044C476.386 33.6044 476.395 33.6044 476.403 33.6044C476.411 33.6044 476.419 33.6044 476.427 33.6044C476.436 33.6044 476.444 33.6044 476.452 33.6044C476.46 33.6044 476.468 33.6044 476.477 33.6044C476.485 33.6044 476.493 33.6044 476.501 33.6044C476.509 33.6044 476.518 33.6044 476.526 33.6044C476.534 33.6044 476.542 33.6044 476.55 33.6044C476.558 33.6044 476.567 33.6044 476.575 33.6044C476.583 33.6044 476.591 33.6044 476.599 33.6044C476.607 33.6044 476.616 33.6044 476.624 33.6044C476.632 33.6044 476.64 33.6044 476.648 33.6044C476.656 33.6044 476.664 33.6044 476.673 33.6044C476.681 33.6044 476.689 33.6044 476.697 33.6044C476.705 33.6044 476.713 33.6044 476.721 33.6044C476.729 33.6044 476.737 33.6044 476.746 33.6044C476.754 33.6044 476.762 33.6044 476.77 33.6044C476.778 33.6044 476.786 33.6044 476.794 33.6044C476.802 33.6044 476.81 33.6044 476.818 33.6044C476.827 33.6044 476.835 33.6044 476.843 33.6044C476.851 33.6044 476.859 33.6044 476.867 33.6044C476.875 33.6044 476.883 33.6044 476.891 33.6044C476.899 33.6044 476.907 33.6044 476.915 33.6044C476.923 33.6044 476.931 33.6044 476.939 33.6044C476.947 33.6044 476.955 33.6044 476.963 33.6044C476.971 33.6044 476.979 33.6044 476.987 33.6044C476.995 33.6044 477.003 33.6044 477.012 33.6044C477.02 33.6044 477.028 33.6044 477.036 33.6044C477.044 33.6044 477.052 33.6044 477.06 33.6044C477.068 33.6044 477.076 33.6044 477.083 33.6044C477.091 33.6044 477.099 33.6044 477.107 33.6044C477.115 33.6044 477.123 33.6044 477.131 33.6044C477.139 33.6044 477.147 33.6044 477.155 33.6044C477.163 33.6044 477.171 33.6044 477.179 33.6044C477.187 33.6044 477.195 33.6044 477.203 33.6044C477.211 33.6044 477.219 33.6044 477.227 33.6044C477.235 33.6044 477.243 33.6044 477.251 33.6044V32.8544V32.1044C477.243 32.1044 477.235 32.1044 477.227 32.1044C477.219 32.1044 477.211 32.1044 477.203 32.1044C477.195 32.1044 477.187 32.1044 477.179 32.1044C477.171 32.1044 477.163 32.1044 477.155 32.1044C477.147 32.1044 477.139 32.1044 477.131 32.1044C477.123 32.1044 477.115 32.1044 477.107 32.1044C477.099 32.1044 477.091 32.1044 477.083 32.1044C477.076 32.1044 477.068 32.1044 477.06 32.1044C477.052 32.1044 477.044 32.1044 477.036 32.1044C477.028 32.1044 477.02 32.1044 477.012 32.1044C477.003 32.1044 476.995 32.1044 476.987 32.1044C476.979 32.1044 476.971 32.1044 476.963 32.1044C476.955 32.1044 476.947 32.1044 476.939 32.1044C476.931 32.1044 476.923 32.1044 476.915 32.1044C476.907 32.1044 476.899 32.1044 476.891 32.1044C476.883 32.1044 476.875 32.1044 476.867 32.1044C476.859 32.1044 476.851 32.1044 476.843 32.1044C476.835 32.1044 476.827 32.1044 476.818 32.1044C476.81 32.1044 476.802 32.1044 476.794 32.1044C476.786 32.1044 476.778 32.1044 476.77 32.1044C476.762 32.1044 476.754 32.1044 476.746 32.1044C476.737 32.1044 476.729 32.1044 476.721 32.1044C476.713 32.1044 476.705 32.1044 476.697 32.1044C476.689 32.1044 476.681 32.1044 476.673 32.1044C476.664 32.1044 476.656 32.1044 476.648 32.1044C476.64 32.1044 476.632 32.1044 476.624 32.1044C476.616 32.1044 476.607 32.1044 476.599 32.1044C476.591 32.1044 476.583 32.1044 476.575 32.1044C476.567 32.1044 476.558 32.1044 476.55 32.1044C476.542 32.1044 476.534 32.1044 476.526 32.1044C476.518 32.1044 476.509 32.1044 476.501 32.1044C476.493 32.1044 476.485 32.1044 476.477 32.1044C476.468 32.1044 476.46 32.1044 476.452 32.1044C476.444 32.1044 476.436 32.1044 476.427 32.1044C476.419 32.1044 476.411 32.1044 476.403 32.1044C476.395 32.1044 476.386 32.1044 476.378 32.1044C476.37 32.1044 476.362 32.1044 476.353 32.1044C476.345 32.1044 476.337 32.1044 476.329 32.1044C476.32 32.1044 476.312 32.1044 476.304 32.1044C476.296 32.1044 476.288 32.1044 476.279 32.1044C476.271 32.1044 476.263 32.1044 476.254 32.1044C476.246 32.1044 476.238 32.1044 476.23 32.1044C476.221 32.1044 476.213 32.1044 476.205 32.1044C476.197 32.1044 476.188 32.1044 476.18 32.1044C476.172 32.1044 476.163 32.1044 476.155 32.1044C476.147 32.1044 476.139 32.1044 476.13 32.1044C476.122 32.1044 476.114 32.1044 476.105 32.1044C476.097 32.1044 476.089 32.1044 476.08 32.1044C476.072 32.1044 476.064 32.1044 476.055 32.1044C476.047 32.1044 476.039 32.1044 476.03 32.1044C476.022 32.1044 476.014 32.1044 476.005 32.1044C475.997 32.1044 475.989 32.1044 475.98 32.1044C475.972 32.1044 475.964 32.1044 475.955 32.1044C475.947 32.1044 475.939 32.1044 475.93 32.1044C475.922 32.1044 475.913 32.1044 475.905 32.1044C475.897 32.1044 475.888 32.1044 475.88 32.1044C475.872 32.1044 475.863 32.1044 475.855 32.1044C475.846 32.1044 475.838 32.1044 475.83 32.1044C475.821 32.1044 475.813 32.1044 475.804 32.1044C475.796 32.1044 475.788 32.1044 475.779 32.1044C475.771 32.1044 475.762 32.1044 475.754 32.1044C475.746 32.1044 475.737 32.1044 475.729 32.1044C475.72 32.1044 475.712 32.1044 475.704 32.1044C475.695 32.1044 475.687 32.1044 475.678 32.1044C475.67 32.1044 475.661 32.1044 475.653 32.1044C475.644 32.1044 475.636 32.1044 475.628 32.1044C475.619 32.1044 475.611 32.1044 475.602 32.1044C475.594 32.1044 475.585 32.1044 475.577 32.1044C475.568 32.1044 475.56 32.1044 475.551 32.1044C475.543 32.1044 475.534 32.1044 475.526 32.1044C475.518 32.1044 475.509 32.1044 475.501 32.1044C475.492 32.1044 475.484 32.1044 475.475 32.1044C475.467 32.1044 475.458 32.1044 475.45 32.1044C475.441 32.1044 475.433 32.1044 475.424 32.1044C475.416 32.1044 475.407 32.1044 475.399 32.1044C475.39 32.1044 475.382 32.1044 475.373 32.1044C475.365 32.1044 475.356 32.1044 475.348 32.1044C475.339 32.1044 475.33 32.1044 475.322 32.1044C475.313 32.1044 475.305 32.1044 475.296 32.1044C475.288 32.1044 475.279 32.1044 475.271 32.1044C475.262 32.1044 475.254 32.1044 475.245 32.1044C475.236 32.1044 475.228 32.1044 475.219 32.1044C475.211 32.1044 475.202 32.1044 475.194 32.1044C475.185 32.1044 475.177 32.1044 475.168 32.1044C475.159 32.1044 475.151 32.1044 475.142 32.1044C475.134 32.1044 475.125 32.1044 475.117 32.1044C475.108 32.1044 475.099 32.1044 475.091 32.1044C475.082 32.1044 475.074 32.1044 475.065 32.1044C475.056 32.1044 475.048 32.1044 475.039 32.1044C475.031 32.1044 475.022 32.1044 475.013 32.1044C475.005 32.1044 474.996 32.1044 474.988 32.1044C474.979 32.1044 474.97 32.1044 474.962 32.1044C474.953 32.1044 474.944 32.1044 474.936 32.1044C474.927 32.1044 474.919 32.1044 474.91 32.1044C474.901 32.1044 474.893 32.1044 474.884 32.1044C474.875 32.1044 474.867 32.1044 474.858 32.1044C474.849 32.1044 474.841 32.1044 474.832 32.1044C474.823 32.1044 474.815 32.1044 474.806 32.1044C474.797 32.1044 474.789 32.1044 474.78 32.1044C474.771 32.1044 474.763 32.1044 474.754 32.1044C474.745 32.1044 474.737 32.1044 474.728 32.1044C474.719 32.1044 474.711 32.1044 474.702 32.1044C474.693 32.1044 474.685 32.1044 474.676 32.1044C474.667 32.1044 474.659 32.1044 474.65 32.1044C474.641 32.1044 474.633 32.1044 474.624 32.1044C474.615 32.1044 474.606 32.1044 474.598 32.1044C474.589 32.1044 474.58 32.1044 474.572 32.1044C474.563 32.1044 474.554 32.1044 474.545 32.1044C474.537 32.1044 474.528 32.1044 474.519 32.1044C474.511 32.1044 474.502 32.1044 474.493 32.1044C474.484 32.1044 474.476 32.1044 474.467 32.1044C474.458 32.1044 474.449 32.1044 474.441 32.1044C474.432 32.1044 474.423 32.1044 474.414 32.1044C474.406 32.1044 474.397 32.1044 474.388 32.1044C474.379 32.1044 474.371 32.1044 474.362 32.1044C474.353 32.1044 474.344 32.1044 474.336 32.1044C474.327 32.1044 474.318 32.1044 474.309 32.1044C474.301 32.1044 474.292 32.1044 474.283 32.1044C474.274 32.1044 474.265 32.1044 474.257 32.1044C474.248 32.1044 474.239 32.1044 474.23 32.1044C474.222 32.1044 474.213 32.1044 474.204 32.1044C474.195 32.1044 474.186 32.1044 474.178 32.1044C474.169 32.1044 474.16 32.1044 474.151 32.1044C474.142 32.1044 474.134 32.1044 474.125 32.1044C474.116 32.1044 474.107 32.1044 474.098 32.1044C474.09 32.1044 474.081 32.1044 474.072 32.1044C474.063 32.1044 474.054 32.1044 474.045 32.1044C474.037 32.1044 474.028 32.1044 474.019 32.1044C474.01 32.1044 474.001 32.1044 473.992 32.1044C473.984 32.1044 473.975 32.1044 473.966 32.1044C473.957 32.1044 473.948 32.1044 473.939 32.1044C473.931 32.1044 473.922 32.1044 473.913 32.1044C473.904 32.1044 473.895 32.1044 473.886 32.1044C473.877 32.1044 473.869 32.1044 473.86 32.1044C473.851 32.1044 473.842 32.1044 473.833 32.1044C473.824 32.1044 473.815 32.1044 473.807 32.1044C473.798 32.1044 473.789 32.1044 473.78 32.1044C473.771 32.1044 473.762 32.1044 473.753 32.1044C473.744 32.1044 473.736 32.1044 473.727 32.1044C473.718 32.1044 473.709 32.1044 473.7 32.1044C473.691 32.1044 473.682 32.1044 473.673 32.1044C473.664 32.1044 473.656 32.1044 473.647 32.1044C473.638 32.1044 473.629 32.1044 473.62 32.1044C473.611 32.1044 473.602 32.1044 473.593 32.1044C473.584 32.1044 473.575 32.1044 473.566 32.1044C473.558 32.1044 473.549 32.1044 473.54 32.1044C473.531 32.1044 473.522 32.1044 473.513 32.1044C473.504 32.1044 473.495 32.1044 473.486 32.1044C473.477 32.1044 473.468 32.1044 473.459 32.1044C473.45 32.1044 473.441 32.1044 473.433 32.1044C473.424 32.1044 473.415 32.1044 473.406 32.1044C473.397 32.1044 473.388 32.1044 473.379 32.1044C473.37 32.1044 473.361 32.1044 473.352 32.1044C473.343 32.1044 473.334 32.1044 473.325 32.1044C473.316 32.1044 473.307 32.1044 473.298 32.1044C473.289 32.1044 473.28 32.1044 473.271 32.1044C473.262 32.1044 473.253 32.1044 473.245 32.1044C473.236 32.1044 473.227 32.1044 473.218 32.1044C473.209 32.1044 473.2 32.1044 473.191 32.1044C473.182 32.1044 473.173 32.1044 473.164 32.1044C473.155 32.1044 473.146 32.1044 473.137 32.1044C473.128 32.1044 473.119 32.1044 473.11 32.1044C473.101 32.1044 473.092 32.1044 473.083 32.1044C473.074 32.1044 473.065 32.1044 473.056 32.1044C473.047 32.1044 473.038 32.1044 473.029 32.1044C473.02 32.1044 473.011 32.1044 473.002 32.1044C472.993 32.1044 472.984 32.1044 472.975 32.1044C472.966 32.1044 472.957 32.1044 472.948 32.1044C472.939 32.1044 472.93 32.1044 472.921 32.1044C472.912 32.1044 472.903 32.1044 472.894 32.1044C472.885 32.1044 472.876 32.1044 472.867 32.1044C472.858 32.1044 472.848 32.1044 472.839 32.1044C472.83 32.1044 472.821 32.1044 472.812 32.1044C472.803 32.1044 472.794 32.1044 472.785 32.1044C472.776 32.1044 472.767 32.1044 472.758 32.1044C472.749 32.1044 472.74 32.1044 472.731 32.1044C472.722 32.1044 472.713 32.1044 472.704 32.1044C472.695 32.1044 472.686 32.1044 472.677 32.1044C472.668 32.1044 472.659 32.1044 472.649 32.1044C472.64 32.1044 472.631 32.1044 472.622 32.1044C472.613 32.1044 472.604 32.1044 472.595 32.1044C472.586 32.1044 472.577 32.1044 472.568 32.1044C472.559 32.1044 472.55 32.1044 472.541 32.1044C472.532 32.1044 472.523 32.1044 472.513 32.1044C472.504 32.1044 472.495 32.1044 472.486 32.1044C472.477 32.1044 472.468 32.1044 472.459 32.1044C472.45 32.1044 472.441 32.1044 472.432 32.1044C472.423 32.1044 472.414 32.1044 472.404 32.1044C472.395 32.1044 472.386 32.1044 472.377 32.1044C472.368 32.1044 472.359 32.1044 472.35 32.1044C472.341 32.1044 472.332 32.1044 472.323 32.1044C472.313 32.1044 472.304 32.1044 472.295 32.1044C472.286 32.1044 472.277 32.1044 472.268 32.1044C472.259 32.1044 472.25 32.1044 472.241 32.1044C472.231 32.1044 472.222 32.1044 472.213 32.1044C472.204 32.1044 472.195 32.1044 472.186 32.1044C472.177 32.1044 472.168 32.1044 472.159 32.1044C472.149 32.1044 472.14 32.1044 472.131 32.1044C472.122 32.1044 472.113 32.1044 472.104 32.1044C472.095 32.1044 472.086 32.1044 472.076 32.1044C472.067 32.1044 472.058 32.1044 472.049 32.1044C472.04 32.1044 472.031 32.1044 472.022 32.1044C472.012 32.1044 472.003 32.1044 471.994 32.1044C471.985 32.1044 471.976 32.1044 471.967 32.1044C471.958 32.1044 471.948 32.1044 471.939 32.1044C471.93 32.1044 471.921 32.1044 471.912 32.1044C471.903 32.1044 471.893 32.1044 471.884 32.1044C471.875 32.1044 471.866 32.1044 471.857 32.1044C471.848 32.1044 471.839 32.1044 471.829 32.1044C471.82 32.1044 471.811 32.1044 471.802 32.1044C471.793 32.1044 471.784 32.1044 471.774 32.1044C471.765 32.1044 471.756 32.1044 471.747 32.1044C471.738 32.1044 471.729 32.1044 471.719 32.1044C471.71 32.1044 471.701 32.1044 471.692 32.1044C471.683 32.1044 471.674 32.1044 471.664 32.1044C471.655 32.1044 471.646 32.1044 471.637 32.1044C471.628 32.1044 471.618 32.1044 471.609 32.1044C471.6 32.1044 471.591 32.1044 471.582 32.1044C471.573 32.1044 471.563 32.1044 471.554 32.1044C471.545 32.1044 471.536 32.1044 471.527 32.1044C471.517 32.1044 471.508 32.1044 471.499 32.1044C471.49 32.1044 471.481 32.1044 471.471 32.1044C471.462 32.1044 471.453 32.1044 471.444 32.1044C471.435 32.1044 471.425 32.1044 471.416 32.1044C471.407 32.1044 471.398 32.1044 471.389 32.1044C471.379 32.1044 471.37 32.1044 471.361 32.1044C471.352 32.1044 471.343 32.1044 471.333 32.1044C471.324 32.1044 471.315 32.1044 471.306 32.1044C471.297 32.1044 471.287 32.1044 471.278 32.1044C471.269 32.1044 471.26 32.1044 471.251 32.1044C471.241 32.1044 471.232 32.1044 471.223 32.1044C471.214 32.1044 471.204 32.1044 471.195 32.1044C471.186 32.1044 471.177 32.1044 471.168 32.1044C471.158 32.1044 471.149 32.1044 471.14 32.1044C471.131 32.1044 471.121 32.1044 471.112 32.1044C471.103 32.1044 471.094 32.1044 471.085 32.1044C471.075 32.1044 471.066 32.1044 471.057 32.1044C471.048 32.1044 471.038 32.1044 471.029 32.1044C471.02 32.1044 471.011 32.1044 471.001 32.1044C470.992 32.1044 470.983 32.1044 470.974 32.1044C470.965 32.1044 470.955 32.1044 470.946 32.1044C470.937 32.1044 470.928 32.1044 470.918 32.1044C470.909 32.1044 470.9 32.1044 470.891 32.1044C470.881 32.1044 470.872 32.1044 470.863 32.1044C470.854 32.1044 470.844 32.1044 470.835 32.1044C470.826 32.1044 470.817 32.1044 470.807 32.1044C470.798 32.1044 470.789 32.1044 470.78 32.1044C470.77 32.1044 470.761 32.1044 470.752 32.1044C470.743 32.1044 470.733 32.1044 470.724 32.1044C470.715 32.1044 470.706 32.1044 470.696 32.1044C470.687 32.1044 470.678 32.1044 470.669 32.1044C470.659 32.1044 470.65 32.1044 470.641 32.1044C470.632 32.1044 470.622 32.1044 470.613 32.1044C470.604 32.1044 470.595 32.1044 470.585 32.1044C470.576 32.1044 470.567 32.1044 470.557 32.1044C470.548 32.1044 470.539 32.1044 470.53 32.1044C470.52 32.1044 470.511 32.1044 470.502 32.1044C470.493 32.1044 470.483 32.1044 470.474 32.1044C470.465 32.1044 470.456 32.1044 470.446 32.1044C470.437 32.1044 470.428 32.1044 470.418 32.1044C470.409 32.1044 470.4 32.1044 470.391 32.1044C470.381 32.1044 470.372 32.1044 470.363 32.1044C470.354 32.1044 470.344 32.1044 470.335 32.1044C470.326 32.1044 470.316 32.1044 470.307 32.1044C470.298 32.1044 470.289 32.1044 470.279 32.1044C470.27 32.1044 470.261 32.1044 470.251 32.1044C470.242 32.1044 470.233 32.1044 470.224 32.1044C470.214 32.1044 470.205 32.1044 470.196 32.1044C470.186 32.1044 470.177 32.1044 470.168 32.1044C470.159 32.1044 470.149 32.1044 470.14 32.1044C470.131 32.1044 470.122 32.1044 470.112 32.1044C470.103 32.1044 470.094 32.1044 470.084 32.1044C470.075 32.1044 470.066 32.1044 470.057 32.1044C470.047 32.1044 470.038 32.1044 470.029 32.1044C470.019 32.1044 470.01 32.1044 470.001 32.1044C469.991 32.1044 469.982 32.1044 469.973 32.1044C469.964 32.1044 469.954 32.1044 469.945 32.1044C469.936 32.1044 469.926 32.1044 469.917 32.1044C469.908 32.1044 469.899 32.1044 469.889 32.1044C469.88 32.1044 469.871 32.1044 469.861 32.1044C469.852 32.1044 469.843 32.1044 469.833 32.1044C469.824 32.1044 469.815 32.1044 469.806 32.1044C469.796 32.1044 469.787 32.1044 469.778 32.1044C469.768 32.1044 469.759 32.1044 469.75 32.1044C469.741 32.1044 469.731 32.1044 469.722 32.1044C469.713 32.1044 469.703 32.1044 469.694 32.1044C469.685 32.1044 469.675 32.1044 469.666 32.1044C469.657 32.1044 469.648 32.1044 469.638 32.1044C469.629 32.1044 469.62 32.1044 469.61 32.1044C469.601 32.1044 469.592 32.1044 469.582 32.1044C469.573 32.1044 469.564 32.1044 469.555 32.1044C469.545 32.1044 469.536 32.1044 469.527 32.1044C469.517 32.1044 469.508 32.1044 469.499 32.1044C469.489 32.1044 469.48 32.1044 469.471 32.1044C469.461 32.1044 469.452 32.1044 469.443 32.1044C469.434 32.1044 469.424 32.1044 469.415 32.1044C469.406 32.1044 469.396 32.1044 469.387 32.1044C469.378 32.1044 469.368 32.1044 469.359 32.1044C469.35 32.1044 469.341 32.1044 469.331 32.1044C469.322 32.1044 469.313 32.1044 469.303 32.1044C469.294 32.1044 469.285 32.1044 469.275 32.1044C469.266 32.1044 469.257 32.1044 469.247 32.1044C469.238 32.1044 469.229 32.1044 469.22 32.1044C469.21 32.1044 469.201 32.1044 469.192 32.1044C469.182 32.1044 469.173 32.1044 469.164 32.1044C469.154 32.1044 469.145 32.1044 469.136 32.1044C469.126 32.1044 469.117 32.1044 469.108 32.1044C469.099 32.1044 469.089 32.1044 469.08 32.1044C469.071 32.1044 469.061 32.1044 469.052 32.1044C469.043 32.1044 469.033 32.1044 469.024 32.1044C469.015 32.1044 469.005 32.1044 468.996 32.1044C468.987 32.1044 468.977 32.1044 468.968 32.1044C468.959 32.1044 468.95 32.1044 468.94 32.1044C468.931 32.1044 468.922 32.1044 468.912 32.1044C468.903 32.1044 468.894 32.1044 468.884 32.1044C468.875 32.1044 468.866 32.1044 468.856 32.1044C468.847 32.1044 468.838 32.1044 468.829 32.1044C468.819 32.1044 468.81 32.1044 468.801 32.1044C468.791 32.1044 468.782 32.1044 468.773 32.1044C468.763 32.1044 468.754 32.1044 468.745 32.1044C468.735 32.1044 468.726 32.1044 468.717 32.1044C468.708 32.1044 468.698 32.1044 468.689 32.1044C468.68 32.1044 468.67 32.1044 468.661 32.1044C468.652 32.1044 468.642 32.1044 468.633 32.1044C468.624 32.1044 468.615 32.1044 468.605 32.1044C468.596 32.1044 468.587 32.1044 468.577 32.1044C468.568 32.1044 468.559 32.1044 468.549 32.1044C468.54 32.1044 468.531 32.1044 468.521 32.1044C468.512 32.1044 468.503 32.1044 468.494 32.1044C468.484 32.1044 468.475 32.1044 468.466 32.1044C468.456 32.1044 468.447 32.1044 468.438 32.1044C468.428 32.1044 468.419 32.1044 468.41 32.1044C468.401 32.1044 468.391 32.1044 468.382 32.1044C468.373 32.1044 468.363 32.1044 468.354 32.1044C468.345 32.1044 468.335 32.1044 468.326 32.1044C468.317 32.1044 468.307 32.1044 468.298 32.1044C468.289 32.1044 468.28 32.1044 468.27 32.1044C468.261 32.1044 468.252 32.1044 468.242 32.1044C468.233 32.1044 468.224 32.1044 468.215 32.1044C468.205 32.1044 468.196 32.1044 468.187 32.1044C468.177 32.1044 468.168 32.1044 468.159 32.1044C468.149 32.1044 468.14 32.1044 468.131 32.1044C468.122 32.1044 468.112 32.1044 468.103 32.1044C468.094 32.1044 468.084 32.1044 468.075 32.1044C468.066 32.1044 468.057 32.1044 468.047 32.1044C468.038 32.1044 468.029 32.1044 468.019 32.1044C468.01 32.1044 468.001 32.1044 467.991 32.1044C467.982 32.1044 467.973 32.1044 467.964 32.1044C467.954 32.1044 467.945 32.1044 467.936 32.1044C467.926 32.1044 467.917 32.1044 467.908 32.1044C467.899 32.1044 467.889 32.1044 467.88 32.1044C467.871 32.1044 467.861 32.1044 467.852 32.1044C467.843 32.1044 467.834 32.1044 467.824 32.1044C467.815 32.1044 467.806 32.1044 467.796 32.1044C467.787 32.1044 467.778 32.1044 467.769 32.1044C467.759 32.1044 467.75 32.1044 467.741 32.1044C467.732 32.1044 467.722 32.1044 467.713 32.1044C467.704 32.1044 467.694 32.1044 467.685 32.1044C467.676 32.1044 467.667 32.1044 467.657 32.1044C467.648 32.1044 467.639 32.1044 467.629 32.1044C467.62 32.1044 467.611 32.1044 467.602 32.1044C467.592 32.1044 467.583 32.1044 467.574 32.1044C467.565 32.1044 467.555 32.1044 467.546 32.1044C467.537 32.1044 467.527 32.1044 467.518 32.1044C467.509 32.1044 467.5 32.1044 467.49 32.1044C467.481 32.1044 467.472 32.1044 467.463 32.1044C467.453 32.1044 467.444 32.1044 467.435 32.1044C467.426 32.1044 467.416 32.1044 467.407 32.1044C467.398 32.1044 467.389 32.1044 467.379 32.1044C467.37 32.1044 467.361 32.1044 467.351 32.1044C467.342 32.1044 467.333 32.1044 467.324 32.1044C467.314 32.1044 467.305 32.1044 467.296 32.1044C467.287 32.1044 467.277 32.1044 467.268 32.1044C467.259 32.1044 467.25 32.1044 467.24 32.1044C467.231 32.1044 467.222 32.1044 467.213 32.1044C467.203 32.1044 467.194 32.1044 467.185 32.1044C467.176 32.1044 467.166 32.1044 467.157 32.1044C467.148 32.1044 467.139 32.1044 467.129 32.1044C467.12 32.1044 467.111 32.1044 467.102 32.1044C467.092 32.1044 467.083 32.1044 467.074 32.1044C467.065 32.1044 467.056 32.1044 467.046 32.1044C467.037 32.1044 467.028 32.1044 467.019 32.1044C467.009 32.1044 467 32.1044 466.991 32.1044C466.982 32.1044 466.972 32.1044 466.963 32.1044C466.954 32.1044 466.945 32.1044 466.935 32.1044C466.926 32.1044 466.917 32.1044 466.908 32.1044C466.899 32.1044 466.889 32.1044 466.88 32.1044C466.871 32.1044 466.862 32.1044 466.852 32.1044C466.843 32.1044 466.834 32.1044 466.825 32.1044C466.816 32.1044 466.806 32.1044 466.797 32.1044C466.788 32.1044 466.779 32.1044 466.769 32.1044C466.76 32.1044 466.751 32.1044 466.742 32.1044C466.733 32.1044 466.723 32.1044 466.714 32.1044C466.705 32.1044 466.696 32.1044 466.687 32.1044C466.677 32.1044 466.668 32.1044 466.659 32.1044C466.65 32.1044 466.641 32.1044 466.631 32.1044C466.622 32.1044 466.613 32.1044 466.604 32.1044C466.595 32.1044 466.585 32.1044 466.576 32.1044C466.567 32.1044 466.558 32.1044 466.549 32.1044C466.539 32.1044 466.53 32.1044 466.521 32.1044C466.512 32.1044 466.503 32.1044 466.493 32.1044C466.484 32.1044 466.475 32.1044 466.466 32.1044C466.457 32.1044 466.447 32.1044 466.438 32.1044C466.429 32.1044 466.42 32.1044 466.411 32.1044C466.401 32.1044 466.392 32.1044 466.383 32.1044C466.374 32.1044 466.365 32.1044 466.356 32.1044C466.346 32.1044 466.337 32.1044 466.328 32.1044C466.319 32.1044 466.31 32.1044 466.301 32.1044C466.291 32.1044 466.282 32.1044 466.273 32.1044C466.264 32.1044 466.255 32.1044 466.246 32.1044C466.236 32.1044 466.227 32.1044 466.218 32.1044C466.209 32.1044 466.2 32.1044 466.191 32.1044C466.181 32.1044 466.172 32.1044 466.163 32.1044C466.154 32.1044 466.145 32.1044 466.136 32.1044C466.126 32.1044 466.117 32.1044 466.108 32.1044C466.099 32.1044 466.09 32.1044 466.081 32.1044C466.072 32.1044 466.062 32.1044 466.053 32.1044C466.044 32.1044 466.035 32.1044 466.026 32.1044C466.017 32.1044 466.007 32.1044 465.998 32.1044C465.989 32.1044 465.98 32.1044 465.971 32.1044C465.962 32.1044 465.953 32.1044 465.944 32.1044C465.934 32.1044 465.925 32.1044 465.916 32.1044C465.907 32.1044 465.898 32.1044 465.889 32.1044C465.88 32.1044 465.87 32.1044 465.861 32.1044C465.852 32.1044 465.843 32.1044 465.834 32.1044C465.825 32.1044 465.816 32.1044 465.807 32.1044C465.798 32.1044 465.788 32.1044 465.779 32.1044C465.77 32.1044 465.761 32.1044 465.752 32.1044C465.743 32.1044 465.734 32.1044 465.725 32.1044C465.716 32.1044 465.706 32.1044 465.697 32.1044C465.688 32.1044 465.679 32.1044 465.67 32.1044C465.661 32.1044 465.652 32.1044 465.643 32.1044C465.634 32.1044 465.624 32.1044 465.615 32.1044C465.606 32.1044 465.597 32.1044 465.588 32.1044C465.579 32.1044 465.57 32.1044 465.561 32.1044C465.552 32.1044 465.543 32.1044 465.534 32.1044C465.525 32.1044 465.515 32.1044 465.506 32.1044C465.497 32.1044 465.488 32.1044 465.479 32.1044C465.47 32.1044 465.461 32.1044 465.452 32.1044C465.443 32.1044 465.434 32.1044 465.425 32.1044C465.416 32.1044 465.407 32.1044 465.397 32.1044C465.388 32.1044 465.379 32.1044 465.37 32.1044C465.361 32.1044 465.352 32.1044 465.343 32.1044C465.334 32.1044 465.325 32.1044 465.316 32.1044C465.307 32.1044 465.298 32.1044 465.289 32.1044C465.28 32.1044 465.271 32.1044 465.262 32.1044C465.253 32.1044 465.244 32.1044 465.235 32.1044C465.225 32.1044 465.216 32.1044 465.207 32.1044C465.198 32.1044 465.189 32.1044 465.18 32.1044C465.171 32.1044 465.162 32.1044 465.153 32.1044C465.144 32.1044 465.135 32.1044 465.126 32.1044C465.117 32.1044 465.108 32.1044 465.099 32.1044C465.09 32.1044 465.081 32.1044 465.072 32.1044C465.063 32.1044 465.054 32.1044 465.045 32.1044C465.036 32.1044 465.027 32.1044 465.018 32.1044C465.009 32.1044 465 32.1044 464.991 32.1044C464.982 32.1044 464.973 32.1044 464.964 32.1044C464.955 32.1044 464.946 32.1044 464.937 32.1044C464.928 32.1044 464.919 32.1044 464.91 32.1044C464.901 32.1044 464.892 32.1044 464.883 32.1044C464.874 32.1044 464.865 32.1044 464.856 32.1044C464.847 32.1044 464.838 32.1044 464.829 32.1044C464.82 32.1044 464.811 32.1044 464.802 32.1044C464.793 32.1044 464.784 32.1044 464.775 32.1044C464.766 32.1044 464.757 32.1044 464.748 32.1044C464.739 32.1044 464.73 32.1044 464.721 32.1044C464.712 32.1044 464.703 32.1044 464.694 32.1044C464.685 32.1044 464.677 32.1044 464.668 32.1044C464.659 32.1044 464.65 32.1044 464.641 32.1044C464.632 32.1044 464.623 32.1044 464.614 32.1044C464.605 32.1044 464.596 32.1044 464.587 32.1044C464.578 32.1044 464.569 32.1044 464.56 32.1044C464.551 32.1044 464.542 32.1044 464.533 32.1044C464.525 32.1044 464.516 32.1044 464.507 32.1044C464.498 32.1044 464.489 32.1044 464.48 32.1044C464.471 32.1044 464.462 32.1044 464.453 32.1044C464.444 32.1044 464.435 32.1044 464.426 32.1044C464.417 32.1044 464.409 32.1044 464.4 32.1044C464.391 32.1044 464.382 32.1044 464.373 32.1044C464.364 32.1044 464.355 32.1044 464.346 32.1044C464.337 32.1044 464.328 32.1044 464.32 32.1044C464.311 32.1044 464.302 32.1044 464.293 32.1044C464.284 32.1044 464.275 32.1044 464.266 32.1044C464.257 32.1044 464.248 32.1044 464.24 32.1044C464.231 32.1044 464.222 32.1044 464.213 32.1044C464.204 32.1044 464.195 32.1044 464.186 32.1044C464.177 32.1044 464.169 32.1044 464.16 32.1044C464.151 32.1044 464.142 32.1044 464.133 32.1044C464.124 32.1044 464.115 32.1044 464.107 32.1044C464.098 32.1044 464.089 32.1044 464.08 32.1044C464.071 32.1044 464.062 32.1044 464.054 32.1044C464.045 32.1044 464.036 32.1044 464.027 32.1044C464.018 32.1044 464.009 32.1044 464 32.1044C463.992 32.1044 463.983 32.1044 463.974 32.1044C463.965 32.1044 463.956 32.1044 463.948 32.1044C463.939 32.1044 463.93 32.1044 463.921 32.1044C463.912 32.1044 463.903 32.1044 463.895 32.1044C463.886 32.1044 463.877 32.1044 463.868 32.1044C463.859 32.1044 463.851 32.1044 463.842 32.1044C463.833 32.1044 463.824 32.1044 463.815 32.1044C463.807 32.1044 463.798 32.1044 463.789 32.1044C463.78 32.1044 463.771 32.1044 463.763 32.1044C463.754 32.1044 463.745 32.1044 463.736 32.1044C463.728 32.1044 463.719 32.1044 463.71 32.1044C463.701 32.1044 463.692 32.1044 463.684 32.1044C463.675 32.1044 463.666 32.1044 463.657 32.1044C463.649 32.1044 463.64 32.1044 463.631 32.1044C463.622 32.1044 463.614 32.1044 463.605 32.1044C463.596 32.1044 463.587 32.1044 463.579 32.1044C463.57 32.1044 463.561 32.1044 463.552 32.1044C463.544 32.1044 463.535 32.1044 463.526 32.1044C463.517 32.1044 463.509 32.1044 463.5 32.1044V32.8544ZM274.5 60.2825L273.816 60.5903C274.828 62.8388 276.988 64.3867 279.789 65.3732C282.596 66.3618 286.142 66.8232 290.103 66.8368C298.03 66.864 307.781 65.0975 316.989 61.9573C326.19 58.8193 334.928 54.2833 340.781 48.7192C346.643 43.1474 349.715 36.4249 347.21 29.0416L346.5 29.2825L345.79 29.5235C348.035 36.1402 345.377 42.281 339.748 47.632C334.11 52.9908 325.596 57.4373 316.505 60.5376C307.42 63.6357 297.837 65.3633 290.108 65.3368C286.242 65.3235 282.879 64.8711 280.288 63.9584C277.69 63.0437 275.962 61.7028 275.184 59.9748L274.5 60.2825ZM272.5 9.78254L272.059 9.17598C266.556 13.1781 264.535 17.2866 265.31 21.4556C266.063 25.5081 269.428 29.3361 273.938 32.9249C278.479 36.5379 284.335 40.0261 290.321 43.3599C296.333 46.7085 302.448 49.887 307.62 52.929L308 52.2825L308.38 51.6361C303.195 48.5861 297.002 45.3642 291.051 42.0495C285.073 38.7199 279.31 35.2819 274.872 31.7511C270.404 28.196 267.432 24.6626 266.784 21.1815C266.159 17.8169 267.674 14.2196 272.941 10.3891L272.5 9.78254ZM308 52.2825L307.62 52.929C311.891 55.4416 318.709 58.9809 325.305 60.7567C328.602 61.6443 331.895 62.106 334.811 61.7456C337.745 61.383 340.332 60.1805 342.108 57.7217L341.5 57.2825L340.892 56.8434C339.418 58.8846 337.255 59.9321 334.627 60.2569C331.98 60.5841 328.898 60.1708 325.695 59.3083C319.291 57.5842 312.609 54.1235 308.38 51.6361L308 52.2825ZM341.5 57.2825L342.108 57.7217C343.525 55.7593 344.123 53.7814 344.066 51.799C344.01 49.8317 343.313 47.9219 342.247 46.0764C340.131 42.4137 336.44 38.8103 332.938 35.2924C329.383 31.7229 326.02 28.2397 324.312 24.7197C323.466 22.9775 323.047 21.2664 323.192 19.5614C323.337 17.8631 324.047 16.1015 325.577 14.262L325 13.7825L324.423 13.303C322.731 15.3385 321.872 17.3823 321.698 19.4341C321.523 21.4792 322.034 23.4629 322.962 25.3747C324.801 29.1626 328.363 32.824 331.875 36.3508C335.438 39.9293 338.953 43.3741 340.948 46.8267C341.937 48.5387 342.52 50.2033 342.567 51.8416C342.613 53.4647 342.134 55.1235 340.892 56.8434L341.5 57.2825ZM325 13.7825L325.577 14.262C328.883 10.2862 334.5 8.84862 341.289 9.43707C348.059 10.0239 355.833 12.6193 363.202 16.491C370.568 20.3611 377.48 25.4806 382.541 31.0704C387.616 36.6755 390.75 42.6641 390.75 48.2825H391.5H392.25C392.25 42.127 388.839 35.7912 383.653 30.0637C378.454 24.3208 371.392 19.0997 363.9 15.1632C356.411 11.2284 348.442 8.55149 341.419 7.94267C334.414 7.33546 328.185 8.77884 324.423 13.303L325 13.7825ZM430.5 17.7825L430.044 18.3777C438.808 25.0968 443.639 28.9328 448.027 31.0561C452.486 33.214 456.477 33.6044 463.5 33.6044V32.8544V32.1044C456.523 32.1044 452.819 31.7088 448.68 29.7059C444.47 27.6682 439.801 23.9683 430.956 17.1873L430.5 17.7825ZM391.5 48.2825H390.75C390.75 50.7127 390.129 52.6391 389.093 54.1201C388.056 55.6029 386.572 56.6837 384.775 57.3694C381.163 58.7478 376.325 58.5086 371.629 56.7233C362.262 53.1618 353.822 43.6096 357.229 29.4581L356.5 29.2825L355.771 29.107C352.145 44.1669 361.205 54.3647 371.096 58.1253C376.03 60.0011 381.261 60.316 385.31 58.7708C387.344 57.9946 389.088 56.7441 390.322 54.9799C391.558 53.2138 392.25 50.9774 392.25 48.2825H391.5ZM356.5 29.2825L357.229 29.4581C360.418 16.2112 367.825 10.2945 375.896 8.35447C384.043 6.39612 392.987 8.46439 399.173 11.4577L399.5 10.7825L399.827 10.1074C393.435 7.01451 384.129 4.8328 375.545 6.89601C366.886 8.97752 359.082 15.354 355.771 29.107L356.5 29.2825ZM311 22.7825L310.736 23.4845C317.894 26.1772 321.471 30.741 321.798 34.7806C321.961 36.792 321.332 38.7305 319.88 40.3526C318.421 41.9827 316.098 43.3257 312.837 44.0504L313 44.7825L313.163 45.5147C316.652 44.7393 319.282 43.2699 320.998 41.3531C322.721 39.4283 323.49 37.0856 323.293 34.6594C322.901 29.8241 318.727 24.8879 311.264 22.0806L311 22.7825ZM313 44.7825L312.837 44.0504C309.04 44.8942 304.393 45.4857 299.603 46.1008C294.832 46.7135 289.925 47.349 285.674 48.2822C281.451 49.2091 277.739 50.4559 275.448 52.3679C274.284 53.339 273.454 54.5094 273.14 55.9209C272.826 57.3303 273.049 58.8858 273.816 60.5903L274.5 60.2825L275.184 59.9748C274.512 58.4812 274.379 57.2604 274.604 56.2465C274.829 55.2346 275.432 54.3346 276.409 53.5195C278.398 51.859 281.792 50.6699 285.995 49.7473C290.17 48.831 295.008 48.2032 299.794 47.5886C304.561 46.9764 309.284 46.3765 313.163 45.5147L313 44.7825ZM399.5 10.7825L399.173 11.4577C406.863 15.1787 413.489 19.7014 418.571 24.3589C423.664 29.0259 427.164 33.7879 428.669 37.9739C430.167 42.1382 429.666 45.6019 426.987 47.9794C424.226 50.4289 418.977 51.9058 410.533 51.5333L410.5 52.2825L410.467 53.0318C419.023 53.4093 424.774 51.9487 427.982 49.1013C431.272 46.182 431.708 41.9894 430.081 37.4662C428.461 32.9647 424.773 28.0079 419.585 23.253C414.386 18.4887 407.637 13.8864 399.827 10.1074L399.5 10.7825ZM410.5 52.2825L410.533 51.5333C406.808 51.3689 403.925 50.3858 401.764 48.875C399.605 47.3654 398.125 45.3006 397.245 42.9033C395.477 38.0868 396.14 31.9216 398.672 26.4156C401.202 20.915 405.538 16.2017 410.954 14.2118C416.325 12.2381 422.892 12.8944 430.044 18.3777L430.5 17.7825L430.956 17.1873C423.462 11.4414 416.363 10.6262 410.436 12.8039C404.554 14.9654 399.959 20.0266 397.309 25.7888C394.662 31.5456 393.896 38.1317 395.837 43.4201C396.811 46.0753 398.469 48.4015 400.905 50.1044C403.339 51.8061 406.509 52.8572 410.467 53.0318L410.5 52.2825Z" />
</svg>
